<svg width="65" height="54" viewBox="0 0 65 54" fill="none" xmlns="http://www.w3.org/2000/svg">
<path fill-rule="evenodd" clip-rule="evenodd" d="M33.6636 0.232139C33.3325 -0.0116799 32.8981 -0.06764 32.5155 0.0842459L10.6679 8.75734C10.2162 8.93664 9.92 9.37145 9.92 9.85505V16.0727L5.45496 17.3954C4.9511 17.5446 4.60571 18.0053 4.60571 18.5281V29.5533C4.60571 29.9003 4.7591 30.2298 5.02519 30.4544C5.29128 30.679 5.64318 30.7759 5.98754 30.7195L9.92 30.0751V35.1393C9.92 35.7921 10.4521 36.3213 11.1086 36.3213H29.1181C29.7745 36.3213 30.3067 35.7921 30.3067 35.1393V25.7312C30.3067 25.3842 30.1533 25.0546 29.8872 24.8301C29.6211 24.6055 29.2692 24.5086 28.9248 24.565L12.2971 27.2898V17.8351L29.4574 12.7518C29.9613 12.6026 30.3067 12.1419 30.3067 11.6191V3.50641L32.7814 2.524L45.939 12.2145V17.7803L37.6787 13.0916C37.3108 12.8828 36.859 12.8844 36.4927 13.096C36.1264 13.3075 35.901 13.6969 35.901 14.1181V23.6272L33.4187 22.5844C33.0517 22.4302 32.6314 22.4692 32.2993 22.6881C31.9673 22.9071 31.7676 23.277 31.7676 23.6732L31.7983 45.1354V45.9654H30.5495V47.7575H31.7983V51.058C31.7983 52.0038 32.0591 52.7206 32.5806 53.2085C33.1122 53.6963 33.8595 53.9403 34.8224 53.9403C35.1935 53.9403 35.5445 53.9004 35.8755 53.8208C36.2165 53.7312 36.5024 53.6018 36.7331 53.4325L36.1012 51.7897C35.8404 51.9889 35.5245 52.0884 35.1534 52.0884C34.8324 52.0884 34.5816 51.9988 34.4011 51.8196C34.2306 51.6305 34.1453 51.3666 34.1453 51.0281V47.7575H36.1614V45.9654H34.1453V44.0091H34.1448V25.4556L35.901 26.1934V35.1393C35.901 35.7921 36.4331 36.3213 37.0895 36.3213H47.1276C47.784 36.3213 48.3162 35.7921 48.3162 35.1393V31.4092L51.3889 32.7001C51.7559 32.8542 52.1762 32.8153 52.5083 32.5963C52.8404 32.3774 53.04 32.0075 53.04 31.6113V22.4972C53.04 22.0728 52.8112 21.6811 52.4406 21.4707L48.3162 19.1296V11.6191C48.3162 11.2445 48.1377 10.8922 47.835 10.6693L33.6636 0.232139ZM27.9295 10.7379L12.2971 15.3686V10.6558L27.9295 4.45009V10.7379ZM6.98285 19.4093L9.92 18.5393V27.6793L6.98285 28.1606V19.4093ZM12.2971 33.9574V29.6855L27.9295 27.1239V33.9574H12.2971ZM38.2781 16.1537L45.939 20.5022V27.8443L38.2781 24.6259V16.1537ZM50.6629 29.8289L48.3162 28.843V21.8515L50.6629 23.1835V29.8289ZM38.2781 27.1921L45.939 30.4105V33.9574H38.2781V27.1921ZM53.3583 44.6662C52.927 44.6662 52.576 44.5417 52.3052 44.2928C52.0344 44.0439 51.899 43.7353 51.899 43.3669C51.899 42.9985 52.0344 42.6899 52.3052 42.441C52.576 42.1921 52.927 42.0676 53.3583 42.0676C53.7896 42.0676 54.1407 42.1871 54.4115 42.426C54.6823 42.665 54.8177 42.9637 54.8177 43.3221C54.8177 43.7104 54.6823 44.034 54.4115 44.2928C54.1407 44.5417 53.7896 44.6662 53.3583 44.6662ZM50.0066 42.7397H47.6595V53.8208H50.0066V42.7397ZM2.78335 53.313C3.65597 53.771 4.62889 54 5.70211 54C6.61485 54 7.44234 53.8407 8.18456 53.5221C8.92679 53.2035 9.54866 52.7406 10.0502 52.1332L8.48547 50.6996C7.77333 51.5259 6.89068 51.9391 5.83752 51.9391C5.18556 51.9391 4.60382 51.7997 4.09228 51.5209C3.58075 51.2322 3.17954 50.834 2.88867 50.3262C2.60783 49.8184 2.46741 49.241 2.46741 48.5938C2.46741 47.9467 2.60783 47.3692 2.88867 46.8615C3.17954 46.3537 3.58075 45.9605 4.09228 45.6817C4.60382 45.393 5.18556 45.2486 5.83752 45.2486C6.89068 45.2486 7.77333 45.6568 8.48547 46.4732L10.0502 45.0395C9.54866 44.4422 8.92679 43.9842 8.18456 43.6656C7.45237 43.347 6.6299 43.1877 5.71716 43.1877C4.63391 43.1877 3.65597 43.4217 2.78335 43.8896C1.92076 44.3476 1.23872 44.9897 0.737212 45.8161C0.245737 46.6325 0 47.5584 0 48.5938C0 49.6293 0.245737 50.5602 0.737212 51.3865C1.23872 52.2029 1.92076 52.8451 2.78335 53.313ZM12.8011 53.4176C13.4831 53.766 14.2504 53.9403 15.103 53.9403C15.9555 53.9403 16.7178 53.766 17.3898 53.4176C18.0619 53.0592 18.5884 52.5663 18.9696 51.9391C19.3507 51.3119 19.5413 50.6 19.5413 49.8035C19.5413 49.007 19.3507 48.2952 18.9696 47.6679C18.5884 47.0407 18.0619 46.5528 17.3898 46.2044C16.7178 45.846 15.9555 45.6668 15.103 45.6668C14.2504 45.6668 13.4831 45.846 12.8011 46.2044C12.1291 46.5528 11.6025 47.0407 11.2213 47.6679C10.8402 48.2952 10.6496 49.007 10.6496 49.8035C10.6496 50.6 10.8402 51.3119 11.2213 51.9391C11.6025 52.5663 12.1291 53.0592 12.8011 53.4176ZM16.5774 51.4313C16.1963 51.8296 15.7048 52.0287 15.103 52.0287C14.5012 52.0287 14.0047 51.8296 13.6135 51.4313C13.2223 51.0231 13.0268 50.4805 13.0268 49.8035C13.0268 49.1265 13.2223 48.5889 13.6135 48.1906C14.0047 47.7824 14.5012 47.5783 15.103 47.5783C15.7048 47.5783 16.1963 47.7824 16.5774 48.1906C16.9686 48.5889 17.1642 49.1265 17.1642 49.8035C17.1642 50.4805 16.9686 51.0231 16.5774 51.4313ZM26.0299 45.6668C27.0329 45.6668 27.8403 45.9654 28.4521 46.5628C29.074 47.1602 29.3849 48.0463 29.3849 49.2211V53.8208H27.0379V49.5795C27.0379 48.9423 26.8975 48.4694 26.6166 48.1608C26.3358 47.8422 25.9296 47.6829 25.398 47.6829C24.8062 47.6829 24.3348 47.8671 23.9837 48.2354C23.6327 48.5938 23.4572 49.1315 23.4572 49.8483V53.8208H21.1101V45.7862H23.3518V46.7271C23.6628 46.3886 24.0489 46.1297 24.5103 45.9505C24.9717 45.7613 25.4782 45.6668 26.0299 45.6668ZM41.6524 53.9403C40.7998 53.9403 40.0325 53.766 39.3505 53.4176C38.6785 53.0592 38.1519 52.5663 37.7707 51.9391C37.3896 51.3119 37.199 50.6 37.199 49.8035C37.199 49.007 37.3896 48.2952 37.7707 47.6679C38.1519 47.0407 38.6785 46.5528 39.3505 46.2044C40.0325 45.846 40.7998 45.6668 41.6524 45.6668C42.505 45.6668 43.2672 45.846 43.9393 46.2044C44.6113 46.5528 45.1379 47.0407 45.519 47.6679C45.9001 48.2952 46.0907 49.007 46.0907 49.8035C46.0907 50.6 45.9001 51.3119 45.519 51.9391C45.1379 52.5663 44.6113 53.0592 43.9393 53.4176C43.2672 53.766 42.505 53.9403 41.6524 53.9403ZM41.6524 52.0287C42.2542 52.0287 42.7457 51.8296 43.1268 51.4313C43.518 51.0231 43.7136 50.4805 43.7136 49.8035C43.7136 49.1265 43.518 48.5889 43.1268 48.1906C42.7457 47.7824 42.2542 47.5783 41.6524 47.5783C41.0506 47.5783 40.5541 47.7824 40.1629 48.1906C39.7717 48.5889 39.5762 49.1265 39.5762 49.8035C39.5762 50.4805 39.7717 51.0231 40.1629 51.4313C40.5541 51.8296 41.0506 52.0287 41.6524 52.0287ZM52.1848 45.7862H54.5319V53.8208H52.1848V45.7862ZM58.2598 53.4176C58.9418 53.766 59.7091 53.9403 60.5617 53.9403C61.4142 53.9403 62.1765 53.766 62.8485 53.4176C63.5206 53.0592 64.0471 52.5663 64.4283 51.9391C64.8094 51.3119 65 50.6 65 49.8035C65 49.007 64.8094 48.2952 64.4283 47.6679C64.0471 47.0407 63.5206 46.5528 62.8485 46.2044C62.1765 45.846 61.4142 45.6668 60.5617 45.6668C59.7091 45.6668 58.9418 45.846 58.2598 46.2044C57.5878 46.5528 57.0612 47.0407 56.68 47.6679C56.2989 48.2952 56.1083 49.007 56.1083 49.8035C56.1083 50.6 56.2989 51.3119 56.68 51.9391C57.0612 52.5663 57.5878 53.0592 58.2598 53.4176ZM62.0361 51.4313C61.655 51.8296 61.1635 52.0287 60.5617 52.0287C59.9599 52.0287 59.4634 51.8296 59.0722 51.4313C58.681 51.0231 58.4854 50.4805 58.4854 49.8035C58.4854 49.1265 58.681 48.5889 59.0722 48.1906C59.4634 47.7824 59.9599 47.5783 60.5617 47.5783C61.1635 47.5783 61.655 47.7824 62.0361 48.1906C62.4273 48.5889 62.6229 49.1265 62.6229 49.8035C62.6229 50.4805 62.4273 51.0231 62.0361 51.4313Z" fill="url(#paint0_linear_186_970)"/>
<defs>
<linearGradient id="paint0_linear_186_970" x1="32.5" y1="0" x2="32.5" y2="54" gradientUnits="userSpaceOnUse">
<stop stop-color="#1BDBE8"/>
<stop offset="0.6875" stop-color="#145DA0"/>
</linearGradient>
</defs>
</svg>
